<?xml version="1.0" encoding="utf-8"?>
<!-- Generator: Adobe Illustrator 23.0.2, SVG Export Plug-In . SVG Version: 6.00 Build 0)  -->
<svg version="1.1" id="Capa_1" xmlns="http://www.w3.org/2000/svg" xmlns:xlink="http://www.w3.org/1999/xlink" x="0px" y="0px"
	 viewBox="0 0 1020 1020" style="enable-background:new 0 0 1020 1020;" xml:space="preserve">
<g>
	<path d="M1003.8,0H16.2C7.2,0,0,9.2,0,20.5v979c0,11.3,7.2,20.5,16.2,20.5h987.7c8.9,0,16.2-9.2,16.2-20.5v-979
		C1020,9.2,1012.8,0,1003.8,0z M923,856.7L700.8,564.8c-2.5-3.2-6.5-3.4-9.1-0.5l-154.2,172l-197-307.6c-1.3-2-3.2-3.2-5.3-3.1
		c-2,0.1-3.9,1.3-5.2,3.4L97,825.6V122.9H923L923,856.7L923,856.7z"/>
	<path d="M739.5,384.8c48.5,0,87.9-39.3,87.9-87.9c0-48.5-39.4-87.9-87.9-87.9c-48.5,0-87.9,39.4-87.9,87.9
		C651.6,345.4,690.9,384.8,739.5,384.8z"/>
</g>
</svg>
